<svg xmlns="http://www.w3.org/2000/svg" width="512" height="512" viewBox="0 0 135.467 135.467"><path d="M70.946 21.688c-5.566-.024-11.104.574-16.038 1.798l-2.435.604 1.486 3.59 1.486 3.591-7.972 3.292-7.973 3.292-1.473-3.526c-.81-1.94-1.536-3.494-1.612-3.454-.075.04-.83.494-1.677 1.01-8.156 4.973-16.438 13.161-21.552 21.309l-1.57 2.5 3.49 1.52 3.489 1.518-3.297 7.927L12 74.586l-3.545-1.383L4.91 71.82l-.667 2.873c-2.045 8.821-2.189 18.766-.402 27.898.45 2.305.902 4.224 1.002 4.266.1.041 1.661-.539 3.469-1.289 1.807-.75 3.398-1.317 3.535-1.26.326.134 6.68 15.4 6.544 15.725-.057.138-1.653.887-3.546 1.664l-3.442 1.412.708 1.214c4.67 8.01 12.346 16.136 20.085 21.257a514.9 514.9 0 0 1 2.814 1.872c1.534 1.045 1.37 1.198 3.053-2.848l1.524-3.665 7.973 3.29 7.973 3.288-1.524 3.665c-1.152 2.77-1.45 3.696-1.217 3.791.758.31 5.286 1.21 8.045 1.598 8.013 1.128 17.773.598 25.766-1.397l1.5-.375-1.489-3.623-1.49-3.624 7.976-3.286 7.975-3.287 1.484 3.553 1.485 3.552 2.151-1.34c7.294-4.546 14.512-11.405 19.594-18.62.988-1.402 2.133-3.152 2.545-3.887l.749-1.337-3.469-1.43-3.468-1.431 3.303-7.94 3.302-7.941 3.466 1.43 3.466 1.43.366-1.352c1.77-6.538 2.432-15.085 1.754-22.677-.3-3.364-1.45-9.91-1.886-10.732-.178-.337-.91-.135-3.671 1.01l-3.45 1.43-3.343-8.032-3.344-8.033 3.514-1.457c1.934-.801 3.492-1.597 3.464-1.769-.107-.657-4.673-7.179-6.784-9.687-4.952-5.887-10.195-10.368-17.229-14.722l-.857-.53-1.529 3.675-1.529 3.676-7.973-3.289-7.973-3.29 1.525-3.667 1.526-3.667-1.106-.278c-5.05-1.267-10.646-1.914-16.212-1.939Zm-.604 15.604a51.985 52.094 0 0 1 51.985 52.094 51.985 52.094 0 0 1-51.985 52.094 51.985 52.094 0 0 1-51.984-52.094 51.985 52.094 0 0 1 51.984-52.094Zm5.364 9.492v5.031H64.978v-5.03a42.85 42.94 0 0 0-21.022 8.768l3.503 3.49-7.586 7.554-3.455-3.442a42.85 42.94 0 0 0-8.592 20.889h4.791v10.684h-4.791a42.85 42.94 0 0 0 8.591 20.889l3.456-3.442 7.586 7.555-3.503 3.489a42.85 42.94 0 0 0 21.022 8.769v-5.031h10.728v5.03a42.85 42.94 0 0 0 21.023-8.769l-3.504-3.488 7.586-7.555 3.456 3.442a42.85 42.94 0 0 0 8.592-20.89h-4.792V84.045h4.792a42.85 42.94 0 0 0-8.592-20.89l-3.456 3.443-7.586-7.555 3.504-3.489a42.85 42.94 0 0 0-21.023-8.77Zm-5.32 11.42a31.143 31.28 43.147 0 1 11.95 2.35 31.143 31.28 43.147 0 1 16.8 40.75 31.143 31.28 43.147 0 1-40.81 16.983 31.143 31.28 43.147 0 1-16.8-40.749 31.143 31.28 43.147 0 1 28.86-19.333Zm-.023 5.486a25.67 25.784 43.147 0 0-6.856.952l1.137 2.734-5.944 2.452-1.122-2.697a25.67 25.784 43.147 0 0-9.575 9.611l2.655 1.096-2.462 5.92-2.655-1.096a25.67 25.784 43.147 0 0-.054 13.54l2.709-1.118 2.462 5.92-2.745 1.133a25.67 25.784 43.147 0 0 9.627 9.664l1.16-2.788 5.944 2.452-1.159 2.788a25.67 25.784 43.147 0 0 13.67-.054l-1.138-2.734 5.945-2.452 1.122 2.698a25.67 25.784 43.147 0 0 9.575-9.612l-2.655-1.095 2.462-5.92 2.655 1.095a25.67 25.784 43.147 0 0 .054-13.539l-2.709 1.118-2.462-5.92 2.745-1.133a25.67 25.784 43.147 0 0-9.627-9.664l-1.16 2.788-5.945-2.453 1.16-2.788a25.67 25.784 43.147 0 0-6.814-.898z" style="fill:#000;stroke:none;stroke-width:10.8718;stroke-linejoin:round;stop-color:#000" transform="translate(-2.598 -21.688)"/></svg>