<svg xmlns="http://www.w3.org/2000/svg" width="512" height="512" viewBox="0 0 135.467 135.467"><path d="M70.416 21.688c-6.1.019-12.172.862-18.053 2.506l2.994 7.197-15.652 6.455-2.955-7.1a68.17 68.17 0 0 0-25.212 25.3l6.99 2.883-6.483 15.584-6.99-2.883a67.736 67.736 0 0 0-.141 35.64l7.131-2.941 6.484 15.584-7.23 2.982a67.3 67.3 0 0 0 25.352 25.44l3.054-7.339 15.652 6.455-3.052 7.339a67.736 67.736 0 0 0 35.993-.142l-2.994-7.197 15.653-6.455 2.954 7.1a68.17 68.17 0 0 0 25.212-25.3l-6.99-2.883 6.483-15.584 6.99 2.883a67.736 67.736 0 0 0 .142-35.64l-7.132 2.941-6.483-15.584 7.229-2.98a67.3 67.3 0 0 0-25.352-25.442l-3.053 7.339-15.653-6.455 3.053-7.34a67.617 67.617 0 0 0-17.941-2.363z" style="fill:#000;stroke:none;stroke-width:28.6231;stroke-linejoin:round;stop-color:#000" transform="translate(-2.598 -21.688)"/></svg>